<svg width="29" height="29" viewBox="0 0 29 29" xmlns="http://www.w3.org/2000/svg"><title>Page 1</title><g id="Page-1" fill="none" fill-rule="evenodd" opacity=".327"><g id="Employers-Page-Modal" transform="translate(-1204 -205)" fill="#000"><g id="Page-1" transform="translate(1204 205)"><path d="M27.41 28.74a1.1 1.1 0 0 1-.784-.325L.548 2.337a1.107 1.107 0 0 1 0-1.57 1.107 1.107 0 0 1 1.57 0l26.078 26.078a1.109 1.109 0 0 1-.787 1.896z" id="Fill-1"/><path d="M1.332 28.74a1.108 1.108 0 0 1-.784-1.896L26.626.77a1.108 1.108 0 0 1 1.57 0 1.108 1.108 0 0 1 0 1.57L2.118 28.414a1.108 1.108 0 0 1-.786.326z" id="Fill-2"/></g></g></g></svg>