<?xml version="1.0" encoding="UTF-8"?>
<svg width="44px" height="44px" viewBox="0 0 44 44" version="1.1" xmlns="http://www.w3.org/2000/svg" xmlns:xlink="http://www.w3.org/1999/xlink">
    <!-- Generator: Sketch 42 (36781) - http://www.bohemiancoding.com/sketch -->
    <title>Shape</title>
    <desc>Created with Sketch.</desc>
    <defs></defs>
    <g id="Page-1" stroke="none" stroke-width="1" fill="none" fill-rule="evenodd">
        <g id="Home" transform="translate(-1293.000000, -14.000000)" fill="#3B5998">
            <path d="M1314.91048,14 C1302.81042,14 1293,23.8301928 1293,35.954646 C1293,48.0790993 1302.81042,57.909292 1314.91048,57.909292 C1327.01054,57.909292 1336.82096,48.0790993 1336.82096,35.954646 C1336.82096,23.8301928 1327.01054,14 1314.91048,14 L1314.91048,14 Z M1320.3881,28.6364307 L1317.92317,28.6364307 C1316.94085,28.6364307 1316.73635,29.0407621 1316.73635,30.0598236 L1316.73635,32.2955383 L1320.3881,32.2955383 L1320.00649,35.954646 L1316.73635,35.954646 L1316.73635,48.7615229 L1311.25873,48.7615229 L1311.25873,35.954646 L1307.60699,35.954646 L1307.60699,32.2955383 L1311.25873,32.2955383 L1311.25873,28.0729281 C1311.25873,24.8364474 1312.95862,23.1477692 1316.7893,23.1477692 L1320.3881,23.1477692 L1320.3881,28.6364307 L1320.3881,28.6364307 Z" id="Shape"></path>
        </g>
    </g>
</svg>