<?xml version="1.0" encoding="UTF-8" standalone="no"?>
<svg width="487px" height="487px" viewBox="0 0 487 487" version="1.1" xmlns="http://www.w3.org/2000/svg" xmlns:xlink="http://www.w3.org/1999/xlink">
    <!-- Generator: Sketch 41 (35326) - http://www.bohemiancoding.com/sketch -->
    <title>Shape</title>
    <desc>Created with Sketch.</desc>
    <defs></defs>
    <g id="CandidateDesign" stroke="none" stroke-width="1" fill="none" fill-rule="evenodd">
        <g id="Personal" transform="translate(-216.000000, -632.000000)" fill="#1870E6">
            <g id="linkedin" transform="translate(216.000000, 632.000000)">
                <g id="Capa_1">
                    <path d="M243.196,0 C108.891,0 0,108.891 0,243.196 C0,377.501 108.891,486.392 243.196,486.392 C377.501,486.392 486.392,377.501 486.392,243.196 C486.392,108.861 377.501,0 243.196,0 Z M182.397,360.994 L121.598,360.994 L121.598,148.197 L182.397,148.197 L182.397,360.994 Z M153.882,135.156 C138.135,135.156 125.398,122.388 125.398,106.641 C125.398,90.894 138.166,78.126 153.882,78.126 C169.629,78.156 182.397,90.924 182.397,106.641 C182.397,122.388 169.629,135.156 153.882,135.156 Z M395.193,360.994 L334.394,360.994 L334.394,229.425 C334.394,214.012 329.986,203.221 311.047,203.221 C279.644,203.221 273.595,229.425 273.595,229.425 L273.595,360.994 L212.796,360.994 L212.796,148.197 L273.595,148.197 L273.595,168.534 C282.289,161.877 303.994,148.227 334.394,148.227 C354.093,148.227 395.193,160.022 395.193,231.278 L395.193,360.994 Z" id="Shape"></path>
                </g>
            </g>
        </g>
    </g>
</svg>