<?xml version="1.0" encoding="UTF-8"?>
<svg width="44px" height="44px" viewBox="0 0 44 44" version="1.1" xmlns="http://www.w3.org/2000/svg" xmlns:xlink="http://www.w3.org/1999/xlink">
    <!-- Generator: Sketch 42 (36781) - http://www.bohemiancoding.com/sketch -->
    <title>Shape</title>
    <desc>Created with Sketch.</desc>
    <defs></defs>
    <g id="Page-1" stroke="none" stroke-width="1" fill="none" fill-rule="evenodd">
        <g id="Home" transform="translate(-1360.000000, -14.000000)" fill="#4099FF">
            <path d="M1381.61029,14 C1369.736,14 1360.10863,23.6467738 1360.10863,35.5450001 C1360.10863,47.4432264 1369.736,57.0900002 1381.61029,57.0900002 C1393.48458,57.0900002 1403.11195,47.4432264 1403.11195,35.5450001 C1403.11195,23.6467738 1393.48458,14 1381.61029,14 L1381.61029,14 Z M1392.47938,31.3167938 C1392.80728,38.5702772 1387.40857,46.6568339 1377.85108,46.6568339 C1374.94477,46.6568339 1372.24094,45.8022155 1369.96356,44.3389509 C1372.69427,44.6621259 1375.4196,43.9008693 1377.58231,42.2042005 C1375.3318,42.1629059 1373.4307,40.6709147 1372.77311,38.6223443 C1373.58121,38.7767501 1374.37677,38.7318647 1375.09887,38.5343688 C1372.62439,38.035243 1370.91501,35.8017447 1370.97055,33.4120451 C1371.66577,33.7980597 1372.45775,34.0296684 1373.30169,34.0565997 C1371.00997,32.5215184 1370.36134,29.4890596 1371.70878,27.1711767 C1374.24597,30.2916109 1378.03922,32.3437721 1382.31626,32.5592221 C1381.56549,29.3346538 1384.00772,26.2267875 1387.33152,26.2267875 C1388.80976,26.2267875 1390.14824,26.853388 1391.08715,27.8552305 C1392.25899,27.6254171 1393.36274,27.1945171 1394.3554,26.603825 C1393.97016,27.8085496 1393.15489,28.8175738 1392.09235,29.4567421 C1393.13339,29.331063 1394.12605,29.0545688 1395.04703,28.6434184 C1394.35898,29.6811692 1393.48816,30.5896501 1392.47938,31.3167938 L1392.47938,31.3167938 Z" id="Shape"></path>
        </g>
    </g>
</svg>